<mxfile host="app.diagrams.net" modified="2021-01-27T12:55:25.819Z" agent="5.0 (Windows NT 10.0; Win64; x64) AppleWebKit/537.36 (KHTML, like Gecko) Chrome/87.0.4280.141 Safari/537.36" etag="5olzX-_JWAjV7mfN5bb5" version="14.2.7" type="github">
  <diagram id="ZGgq6k-ltOVmovlfIZoH" name="Page-1">
    <mxGraphModel dx="1422" dy="762" grid="1" gridSize="10" guides="1" tooltips="1" connect="1" arrows="1" fold="1" page="1" pageScale="1" pageWidth="827" pageHeight="1169" math="0" shadow="0">
      <root>
        <mxCell id="0" />
        <mxCell id="1" parent="0" />
        <mxCell id="SkGkPnIFWxc_dyA8LWUv-10" value="" style="edgeStyle=orthogonalEdgeStyle;rounded=0;orthogonalLoop=1;jettySize=auto;html=1;" edge="1" parent="1" source="SkGkPnIFWxc_dyA8LWUv-1" target="SkGkPnIFWxc_dyA8LWUv-9">
          <mxGeometry relative="1" as="geometry" />
        </mxCell>
        <mxCell id="SkGkPnIFWxc_dyA8LWUv-1" value="Ta inn nytt bilde" style="rounded=0;whiteSpace=wrap;html=1;" vertex="1" parent="1">
          <mxGeometry x="30" y="250" width="180" height="60" as="geometry" />
        </mxCell>
        <mxCell id="SkGkPnIFWxc_dyA8LWUv-13" style="edgeStyle=orthogonalEdgeStyle;rounded=0;orthogonalLoop=1;jettySize=auto;html=1;entryX=0.544;entryY=0.017;entryDx=0;entryDy=0;entryPerimeter=0;" edge="1" parent="1" source="SkGkPnIFWxc_dyA8LWUv-2" target="SkGkPnIFWxc_dyA8LWUv-4">
          <mxGeometry relative="1" as="geometry" />
        </mxCell>
        <mxCell id="SkGkPnIFWxc_dyA8LWUv-2" value="Ta inn referanse bilde&lt;br&gt;" style="rounded=0;whiteSpace=wrap;html=1;" vertex="1" parent="1">
          <mxGeometry x="30" y="60" width="180" height="60" as="geometry" />
        </mxCell>
        <mxCell id="SkGkPnIFWxc_dyA8LWUv-12" style="edgeStyle=orthogonalEdgeStyle;rounded=0;orthogonalLoop=1;jettySize=auto;html=1;entryX=0.25;entryY=0;entryDx=0;entryDy=0;" edge="1" parent="1" source="SkGkPnIFWxc_dyA8LWUv-3" target="SkGkPnIFWxc_dyA8LWUv-4">
          <mxGeometry relative="1" as="geometry" />
        </mxCell>
        <mxCell id="SkGkPnIFWxc_dyA8LWUv-3" value="Ta inn templates &lt;br&gt;(som hÃ¸rer til referansebilde)" style="rounded=0;whiteSpace=wrap;html=1;" vertex="1" parent="1">
          <mxGeometry x="30" y="150" width="180" height="60" as="geometry" />
        </mxCell>
        <mxCell id="SkGkPnIFWxc_dyA8LWUv-16" style="edgeStyle=orthogonalEdgeStyle;rounded=0;orthogonalLoop=1;jettySize=auto;html=1;entryX=0.5;entryY=0;entryDx=0;entryDy=0;" edge="1" parent="1" source="SkGkPnIFWxc_dyA8LWUv-4" target="SkGkPnIFWxc_dyA8LWUv-15">
          <mxGeometry relative="1" as="geometry" />
        </mxCell>
        <mxCell id="SkGkPnIFWxc_dyA8LWUv-4" value="Hent ut kontur av bilde" style="whiteSpace=wrap;html=1;" vertex="1" parent="1">
          <mxGeometry x="400" y="250" width="160" height="60" as="geometry" />
        </mxCell>
        <mxCell id="SkGkPnIFWxc_dyA8LWUv-11" style="edgeStyle=orthogonalEdgeStyle;rounded=0;orthogonalLoop=1;jettySize=auto;html=1;entryX=0;entryY=0.5;entryDx=0;entryDy=0;" edge="1" parent="1" source="SkGkPnIFWxc_dyA8LWUv-9" target="SkGkPnIFWxc_dyA8LWUv-4">
          <mxGeometry relative="1" as="geometry" />
        </mxCell>
        <mxCell id="SkGkPnIFWxc_dyA8LWUv-9" value="Skalere til referanse&amp;nbsp;" style="whiteSpace=wrap;html=1;" vertex="1" parent="1">
          <mxGeometry x="240" y="250" width="120" height="60" as="geometry" />
        </mxCell>
        <mxCell id="SkGkPnIFWxc_dyA8LWUv-15" value="Bruk template matching" style="whiteSpace=wrap;html=1;" vertex="1" parent="1">
          <mxGeometry x="420" y="360" width="120" height="60" as="geometry" />
        </mxCell>
        <mxCell id="SkGkPnIFWxc_dyA8LWUv-17" value="Kontur" style="whiteSpace=wrap;html=1;" vertex="1" parent="1">
          <mxGeometry x="340" y="460" width="120" height="60" as="geometry" />
        </mxCell>
      </root>
    </mxGraphModel>
  </diagram>
</mxfile>
